<mxfile host="app.diagrams.net" modified="2023-04-25T06:08:06.271Z" agent="Mozilla/5.0 (Macintosh; Intel Mac OS X 10_15_7) AppleWebKit/537.36 (KHTML, like Gecko) Chrome/109.0.0.0 Safari/537.36" etag="QcOF9K6tXiJeBZCCq6jI" version="21.2.1" type="github">
  <diagram id="C5RBs43oDa-KdzZeNtuy" name="Page-1">
    <mxGraphModel dx="2629" dy="2066" grid="1" gridSize="10" guides="1" tooltips="1" connect="1" arrows="1" fold="1" page="1" pageScale="1" pageWidth="827" pageHeight="1169" math="0" shadow="0">
      <root>
        <mxCell id="WIyWlLk6GJQsqaUBKTNV-0" />
        <mxCell id="WIyWlLk6GJQsqaUBKTNV-1" parent="WIyWlLk6GJQsqaUBKTNV-0" />
        <mxCell id="Y8M9MO8NN97qPmSPEtLH-23" value="" style="rounded=0;whiteSpace=wrap;html=1;fontFamily=Helvetica;fontSize=12;fontColor=default;fillColor=none;gradientColor=none;" vertex="1" parent="WIyWlLk6GJQsqaUBKTNV-1">
          <mxGeometry x="-760" y="-960" width="230" height="560" as="geometry" />
        </mxCell>
        <mxCell id="zkfFHV4jXpPFQw0GAbJ--0" value="EventManager" style="swimlane;fontStyle=2;align=center;verticalAlign=top;childLayout=stackLayout;horizontal=1;startSize=26;horizontalStack=0;resizeParent=1;resizeLast=0;collapsible=1;marginBottom=0;rounded=0;shadow=0;strokeWidth=1;" parent="WIyWlLk6GJQsqaUBKTNV-1" vertex="1">
          <mxGeometry x="-360" y="-830" width="250" height="300" as="geometry">
            <mxRectangle x="230" y="140" width="160" height="26" as="alternateBounds" />
          </mxGeometry>
        </mxCell>
        <mxCell id="zkfFHV4jXpPFQw0GAbJ--7" value="Dictionary&lt;string, action&gt; _events" style="text;align=left;verticalAlign=top;spacingLeft=4;spacingRight=4;overflow=hidden;rotatable=0;points=[[0,0.5],[1,0.5]];portConstraint=eastwest;" parent="zkfFHV4jXpPFQw0GAbJ--0" vertex="1">
          <mxGeometry y="26" width="250" height="26" as="geometry" />
        </mxCell>
        <mxCell id="zkfFHV4jXpPFQw0GAbJ--4" value="" style="line;html=1;strokeWidth=1;align=left;verticalAlign=middle;spacingTop=-1;spacingLeft=3;spacingRight=3;rotatable=0;labelPosition=right;points=[];portConstraint=eastwest;" parent="zkfFHV4jXpPFQw0GAbJ--0" vertex="1">
          <mxGeometry y="52" width="250" height="8" as="geometry" />
        </mxCell>
        <mxCell id="Y8M9MO8NN97qPmSPEtLH-46" value="BattleStart() {&lt;br&gt;SceneManager.Loadsecne(&quot;전투 씬&quot;) }" style="text;html=1;strokeColor=none;fillColor=none;align=center;verticalAlign=middle;whiteSpace=wrap;rounded=0;" vertex="1" parent="zkfFHV4jXpPFQw0GAbJ--0">
          <mxGeometry y="60" width="250" height="30" as="geometry" />
        </mxCell>
        <mxCell id="Y8M9MO8NN97qPmSPEtLH-48" value="GameOver() {&lt;br&gt;SceneManager.Loadsecne(&quot;종료 씬&quot;) }" style="text;html=1;strokeColor=none;fillColor=none;align=center;verticalAlign=middle;whiteSpace=wrap;rounded=0;" vertex="1" parent="zkfFHV4jXpPFQw0GAbJ--0">
          <mxGeometry y="90" width="250" height="30" as="geometry" />
        </mxCell>
        <mxCell id="Y8M9MO8NN97qPmSPEtLH-54" value="EventAction()&lt;br&gt;{&lt;br&gt;ui를 어떻게 설계하냐에 따라 달라질듯 인자로 해당 action을 받을지 string을 주면 해당 이벤트를 찾을지&lt;br&gt;}" style="text;html=1;strokeColor=none;fillColor=none;align=center;verticalAlign=middle;whiteSpace=wrap;rounded=0;" vertex="1" parent="zkfFHV4jXpPFQw0GAbJ--0">
          <mxGeometry y="120" width="250" height="90" as="geometry" />
        </mxCell>
        <mxCell id="Y8M9MO8NN97qPmSPEtLH-1" value="" style="rounded=1;whiteSpace=wrap;html=1;" vertex="1" parent="WIyWlLk6GJQsqaUBKTNV-1">
          <mxGeometry x="-715" y="-930" width="120" height="60" as="geometry" />
        </mxCell>
        <mxCell id="Y8M9MO8NN97qPmSPEtLH-2" value="타이틀 씬" style="text;html=1;strokeColor=none;fillColor=none;align=center;verticalAlign=middle;whiteSpace=wrap;rounded=0;" vertex="1" parent="WIyWlLk6GJQsqaUBKTNV-1">
          <mxGeometry x="-715" y="-930" width="120" height="60" as="geometry" />
        </mxCell>
        <mxCell id="Y8M9MO8NN97qPmSPEtLH-5" value="" style="rounded=1;whiteSpace=wrap;html=1;" vertex="1" parent="WIyWlLk6GJQsqaUBKTNV-1">
          <mxGeometry x="-305" y="-930" width="120" height="60" as="geometry" />
        </mxCell>
        <mxCell id="Y8M9MO8NN97qPmSPEtLH-6" value="메인 씬" style="text;html=1;strokeColor=none;fillColor=none;align=center;verticalAlign=middle;whiteSpace=wrap;rounded=0;" vertex="1" parent="WIyWlLk6GJQsqaUBKTNV-1">
          <mxGeometry x="-305" y="-930" width="120" height="60" as="geometry" />
        </mxCell>
        <mxCell id="Y8M9MO8NN97qPmSPEtLH-7" value="" style="rounded=1;whiteSpace=wrap;html=1;" vertex="1" parent="WIyWlLk6GJQsqaUBKTNV-1">
          <mxGeometry x="240" y="-930" width="120" height="60" as="geometry" />
        </mxCell>
        <mxCell id="Y8M9MO8NN97qPmSPEtLH-8" value="종료 씬" style="text;html=1;strokeColor=none;fillColor=none;align=center;verticalAlign=middle;whiteSpace=wrap;rounded=0;" vertex="1" parent="WIyWlLk6GJQsqaUBKTNV-1">
          <mxGeometry x="240" y="-930" width="120" height="60" as="geometry" />
        </mxCell>
        <mxCell id="Y8M9MO8NN97qPmSPEtLH-9" value="" style="rounded=1;whiteSpace=wrap;html=1;" vertex="1" parent="WIyWlLk6GJQsqaUBKTNV-1">
          <mxGeometry x="10" y="-850" width="120" height="60" as="geometry" />
        </mxCell>
        <mxCell id="Y8M9MO8NN97qPmSPEtLH-10" value="전투 씬" style="text;html=1;strokeColor=none;fillColor=none;align=center;verticalAlign=middle;whiteSpace=wrap;rounded=0;" vertex="1" parent="WIyWlLk6GJQsqaUBKTNV-1">
          <mxGeometry x="10" y="-850" width="120" height="60" as="geometry" />
        </mxCell>
        <mxCell id="Y8M9MO8NN97qPmSPEtLH-14" value="TitleManager" style="swimlane;fontStyle=2;align=center;verticalAlign=top;childLayout=stackLayout;horizontal=1;startSize=27;horizontalStack=0;resizeParent=1;resizeLast=0;collapsible=1;marginBottom=0;rounded=0;shadow=0;strokeWidth=1;" vertex="1" parent="WIyWlLk6GJQsqaUBKTNV-1">
          <mxGeometry x="-745" y="-817" width="200" height="139" as="geometry">
            <mxRectangle x="230" y="140" width="160" height="26" as="alternateBounds" />
          </mxGeometry>
        </mxCell>
        <mxCell id="Y8M9MO8NN97qPmSPEtLH-18" value="" style="line;html=1;strokeWidth=1;align=left;verticalAlign=middle;spacingTop=-1;spacingLeft=3;spacingRight=3;rotatable=0;labelPosition=right;points=[];portConstraint=eastwest;" vertex="1" parent="Y8M9MO8NN97qPmSPEtLH-14">
          <mxGeometry y="27" width="200" height="8" as="geometry" />
        </mxCell>
        <mxCell id="Y8M9MO8NN97qPmSPEtLH-31" style="edgeStyle=orthogonalEdgeStyle;rounded=0;orthogonalLoop=1;jettySize=auto;html=1;exitX=0.5;exitY=0;exitDx=0;exitDy=0;entryX=0.5;entryY=1;entryDx=0;entryDy=0;fontFamily=Helvetica;fontSize=12;fontColor=default;" edge="1" parent="WIyWlLk6GJQsqaUBKTNV-1" source="Y8M9MO8NN97qPmSPEtLH-28" target="Y8M9MO8NN97qPmSPEtLH-14">
          <mxGeometry relative="1" as="geometry" />
        </mxCell>
        <mxCell id="Y8M9MO8NN97qPmSPEtLH-28" value="StartButton" style="swimlane;fontStyle=2;align=center;verticalAlign=top;childLayout=stackLayout;horizontal=1;startSize=27;horizontalStack=0;resizeParent=1;resizeLast=0;collapsible=1;marginBottom=0;rounded=0;shadow=0;strokeWidth=1;" vertex="1" parent="WIyWlLk6GJQsqaUBKTNV-1">
          <mxGeometry x="-745" y="-640" width="205" height="139" as="geometry">
            <mxRectangle x="230" y="140" width="160" height="26" as="alternateBounds" />
          </mxGeometry>
        </mxCell>
        <mxCell id="Y8M9MO8NN97qPmSPEtLH-29" value="" style="line;html=1;strokeWidth=1;align=left;verticalAlign=middle;spacingTop=-1;spacingLeft=3;spacingRight=3;rotatable=0;labelPosition=right;points=[];portConstraint=eastwest;" vertex="1" parent="Y8M9MO8NN97qPmSPEtLH-28">
          <mxGeometry y="27" width="205" height="8" as="geometry" />
        </mxCell>
        <mxCell id="Y8M9MO8NN97qPmSPEtLH-30" value="SceneManager.Loadsecne(&quot;메인 씬&quot;)" style="text;html=1;strokeColor=none;fillColor=none;align=center;verticalAlign=middle;whiteSpace=wrap;rounded=0;" vertex="1" parent="Y8M9MO8NN97qPmSPEtLH-28">
          <mxGeometry y="35" width="205" height="30" as="geometry" />
        </mxCell>
        <mxCell id="Y8M9MO8NN97qPmSPEtLH-32" style="edgeStyle=orthogonalEdgeStyle;rounded=0;orthogonalLoop=1;jettySize=auto;html=1;" edge="1" parent="WIyWlLk6GJQsqaUBKTNV-1">
          <mxGeometry relative="1" as="geometry">
            <mxPoint x="240" y="-1080" as="sourcePoint" />
            <mxPoint x="160" y="-1080" as="targetPoint" />
          </mxGeometry>
        </mxCell>
        <mxCell id="Y8M9MO8NN97qPmSPEtLH-33" value="" style="endArrow=block;endSize=10;endFill=0;shadow=0;strokeWidth=1;rounded=0;edgeStyle=elbowEdgeStyle;elbow=vertical;" edge="1" parent="WIyWlLk6GJQsqaUBKTNV-1">
          <mxGeometry width="160" relative="1" as="geometry">
            <mxPoint x="240" y="-1120" as="sourcePoint" />
            <mxPoint x="160" y="-1120" as="targetPoint" />
          </mxGeometry>
        </mxCell>
        <mxCell id="Y8M9MO8NN97qPmSPEtLH-34" value="컴포넌트" style="text;html=1;strokeColor=none;fillColor=none;align=center;verticalAlign=middle;whiteSpace=wrap;rounded=0;fontSize=12;fontFamily=Helvetica;fontColor=default;" vertex="1" parent="WIyWlLk6GJQsqaUBKTNV-1">
          <mxGeometry x="160" y="-1080" width="80" height="30" as="geometry" />
        </mxCell>
        <mxCell id="Y8M9MO8NN97qPmSPEtLH-35" value="상속" style="text;html=1;strokeColor=none;fillColor=none;align=center;verticalAlign=middle;whiteSpace=wrap;rounded=0;fontSize=12;fontFamily=Helvetica;fontColor=default;" vertex="1" parent="WIyWlLk6GJQsqaUBKTNV-1">
          <mxGeometry x="160" y="-1120" width="80" height="30" as="geometry" />
        </mxCell>
        <mxCell id="Y8M9MO8NN97qPmSPEtLH-37" value="" style="shape=flexArrow;endArrow=classic;html=1;rounded=0;fontFamily=Helvetica;fontSize=12;fontColor=default;" edge="1" parent="WIyWlLk6GJQsqaUBKTNV-1" target="Y8M9MO8NN97qPmSPEtLH-6">
          <mxGeometry width="50" height="50" relative="1" as="geometry">
            <mxPoint x="-595" y="-900" as="sourcePoint" />
            <mxPoint x="-545" y="-950" as="targetPoint" />
            <Array as="points" />
          </mxGeometry>
        </mxCell>
        <mxCell id="Y8M9MO8NN97qPmSPEtLH-38" value="" style="shape=flexArrow;endArrow=classic;html=1;rounded=0;fontFamily=Helvetica;fontSize=12;fontColor=default;entryX=0;entryY=0.5;entryDx=0;entryDy=0;" edge="1" parent="WIyWlLk6GJQsqaUBKTNV-1" target="Y8M9MO8NN97qPmSPEtLH-8">
          <mxGeometry width="50" height="50" relative="1" as="geometry">
            <mxPoint x="-185" y="-900.5" as="sourcePoint" />
            <mxPoint x="105" y="-900.5" as="targetPoint" />
            <Array as="points" />
          </mxGeometry>
        </mxCell>
        <mxCell id="Y8M9MO8NN97qPmSPEtLH-42" value="" style="shape=flexArrow;endArrow=classic;html=1;rounded=0;fontFamily=Helvetica;fontSize=12;fontColor=default;entryX=0.5;entryY=0;entryDx=0;entryDy=0;" edge="1" parent="WIyWlLk6GJQsqaUBKTNV-1" target="Y8M9MO8NN97qPmSPEtLH-10">
          <mxGeometry width="50" height="50" relative="1" as="geometry">
            <mxPoint x="-185" y="-900.5" as="sourcePoint" />
            <mxPoint x="595" y="-900" as="targetPoint" />
            <Array as="points">
              <mxPoint x="70" y="-900" />
            </Array>
          </mxGeometry>
        </mxCell>
        <mxCell id="Y8M9MO8NN97qPmSPEtLH-59" value="event ui?" style="swimlane;fontStyle=0;childLayout=stackLayout;horizontal=1;startSize=26;fillColor=none;horizontalStack=0;resizeParent=1;resizeParentMax=0;resizeLast=0;collapsible=1;marginBottom=0;html=1;rounded=0;fontFamily=Helvetica;fontSize=12;fontColor=default;" vertex="1" parent="WIyWlLk6GJQsqaUBKTNV-1">
          <mxGeometry x="-360" y="-500" width="140" height="104" as="geometry" />
        </mxCell>
        <mxCell id="Y8M9MO8NN97qPmSPEtLH-60" value="Item 1" style="text;strokeColor=none;fillColor=none;align=left;verticalAlign=top;spacingLeft=4;spacingRight=4;overflow=hidden;rotatable=0;points=[[0,0.5],[1,0.5]];portConstraint=eastwest;whiteSpace=wrap;html=1;fontSize=12;fontFamily=Helvetica;fontColor=default;" vertex="1" parent="Y8M9MO8NN97qPmSPEtLH-59">
          <mxGeometry y="26" width="140" height="26" as="geometry" />
        </mxCell>
        <mxCell id="Y8M9MO8NN97qPmSPEtLH-61" value="Item 2" style="text;strokeColor=none;fillColor=none;align=left;verticalAlign=top;spacingLeft=4;spacingRight=4;overflow=hidden;rotatable=0;points=[[0,0.5],[1,0.5]];portConstraint=eastwest;whiteSpace=wrap;html=1;fontSize=12;fontFamily=Helvetica;fontColor=default;" vertex="1" parent="Y8M9MO8NN97qPmSPEtLH-59">
          <mxGeometry y="52" width="140" height="26" as="geometry" />
        </mxCell>
        <mxCell id="Y8M9MO8NN97qPmSPEtLH-62" value="Item 3" style="text;strokeColor=none;fillColor=none;align=left;verticalAlign=top;spacingLeft=4;spacingRight=4;overflow=hidden;rotatable=0;points=[[0,0.5],[1,0.5]];portConstraint=eastwest;whiteSpace=wrap;html=1;fontSize=12;fontFamily=Helvetica;fontColor=default;" vertex="1" parent="Y8M9MO8NN97qPmSPEtLH-59">
          <mxGeometry y="78" width="140" height="26" as="geometry" />
        </mxCell>
        <mxCell id="Y8M9MO8NN97qPmSPEtLH-63" value="인벤토리와 같은 형식의 ui로 통일 해도될듯?&lt;br&gt;구성하는 내용만 바꿔서..?&lt;br&gt;action을 인벤토리, 환경설정, 대장장이, 상인 등의 이벤트들 모두&lt;br&gt;를 포함하는 ui로 구성하고 해당 이벤트가 불리는 시기만&lt;br&gt;정하고 이벤트를 호출하는 함수를 하나로 통일&lt;br&gt;" style="text;strokeColor=none;fillColor=none;html=1;fontSize=12;fontStyle=1;verticalAlign=middle;align=center;fontFamily=Helvetica;fontColor=default;" vertex="1" parent="WIyWlLk6GJQsqaUBKTNV-1">
          <mxGeometry x="-190" y="-520" width="320" height="220" as="geometry" />
        </mxCell>
      </root>
    </mxGraphModel>
  </diagram>
</mxfile>
